# ProBuilder 4.5.2
# https://unity3d.com/unity/features/worldbuilding/probuilder
# 14/05/2022 0:08:59

mtllib ./PistaPrimera.mtl
o PistaPrimera

g Cube (1)
v 0.3978692 0.3292249 0.02313683
v -0.6021308 0.3292249 0.02313683
v 0.3978692 1.329225 0.02313683
v -0.6021308 1.329225 0.02313683
v -0.6021308 0.3292249 -0.9768631
v -0.6021308 1.329225 -0.9768631
v 0.3978692 0.3292249 -0.9768631
v 0.3978692 1.329225 -0.9768631

vt 0.9982898 0.2304688
vt 0.7055042 0.2304688
vt 0.9982898 0.7695313
vt 0.7055042 0.7695313
vt 0.2087549 0.2265625
vt 0.0002588481 0.2265625
vt 0.2087549 0.7734375
vt 0.0002588481 0.7734375
vt 0.2100944 0.769165
vt 0.5022582 0.769165
vt 0.2100944 0.2308349
vt 0.5022582 0.2308349
vt 0.7033504 0.2304688
vt 0.4944881 0.2304688
vt 0.7033504 0.7695313
vt 0.4944881 0.7695313
vt 0.212421 0.9958345
vt 0.4908214 0.9958345
vt 0.212421 0.784897
vt 0.4908214 0.784897
vt 0.4934067 0.002513774
vt 0.2102036 0.002513774
vt 0.4934067 0.217491
vt 0.2102036 0.217491

vn 0 0 1
vn -1 0 0
vn 0 0 -1
vn 1 0 0
vn 0 1 0
vn 0 -1 0

usemtl Combi
f 3/3/1 4/4/1 2/2/1 1/1/1
f 4/7/2 6/8/2 5/6/2 2/5/2
f 6/11/3 8/12/3 7/10/3 5/9/3
f 8/15/4 3/16/4 1/14/4 7/13/4
f 8/19/5 6/20/5 4/18/5 3/17/5
f 1/23/6 2/24/6 5/22/6 7/21/6

